<svg width="1600" height="760" viewBox="0 0 1600 760" fill="none" xmlns="http://www.w3.org/2000/svg">
  <rect width="1600" height="760" rx="28" fill="#0F172A"/>
  <rect x="56" y="54" width="1488" height="652" rx="26" fill="#111827" stroke="#243B53" stroke-width="2"/>
  <text x="88" y="106" fill="#E5E7EB" font-family="Helvetica, Arial, sans-serif" font-size="34" font-weight="700">Example ComfyUI Workflow</text>
  <text x="88" y="144" fill="#94A3B8" font-family="Helvetica, Arial, sans-serif" font-size="22">Import the included JSON and run a lyrics-first HeartMuLa song workflow in three nodes.</text>

  <rect x="122" y="210" width="352" height="372" rx="22" fill="#FEF3C7"/>
  <text x="150" y="262" fill="#78350F" font-family="Helvetica, Arial, sans-serif" font-size="30" font-weight="700">HeartMuLa Song Spec</text>
  <text x="150" y="310" fill="#92400E" font-family="Helvetica, Arial, sans-serif" font-size="22">Inputs</text>
  <text x="150" y="344" fill="#7C2D12" font-family="Helvetica, Arial, sans-serif" font-size="20">lyrics</text>
  <text x="150" y="374" fill="#7C2D12" font-family="Helvetica, Arial, sans-serif" font-size="20">style tags</text>
  <text x="150" y="404" fill="#7C2D12" font-family="Helvetica, Arial, sans-serif" font-size="20">BPM, key, duration</text>
  <text x="150" y="434" fill="#7C2D12" font-family="Helvetica, Arial, sans-serif" font-size="20">optional outro / tag ending</text>
  <text x="150" y="492" fill="#92400E" font-family="Helvetica, Arial, sans-serif" font-size="22">Outputs</text>
  <rect x="150" y="514" width="242" height="38" rx="12" fill="#F59E0B"/>
  <text x="170" y="540" fill="#1F2937" font-family="Helvetica, Arial, sans-serif" font-size="18" font-weight="700">lyrics, tags, duration</text>

  <rect x="624" y="240" width="352" height="314" rx="22" fill="#DBEAFE"/>
  <text x="652" y="292" fill="#1D4ED8" font-family="Helvetica, Arial, sans-serif" font-size="30" font-weight="700">Generate Music</text>
  <text x="652" y="340" fill="#1E40AF" font-family="Helvetica, Arial, sans-serif" font-size="22">Runtime Controls</text>
  <text x="652" y="374" fill="#1E3A8A" font-family="Helvetica, Arial, sans-serif" font-size="20">auto runtime profile</text>
  <text x="652" y="404" fill="#1E3A8A" font-family="Helvetica, Arial, sans-serif" font-size="20">local HeartMuLa model folders</text>
  <text x="652" y="434" fill="#1E3A8A" font-family="Helvetica, Arial, sans-serif" font-size="20">seed, topk, temperature, CFG</text>
  <rect x="652" y="486" width="190" height="38" rx="12" fill="#2563EB"/>
  <text x="686" y="512" fill="#EFF6FF" font-family="Helvetica, Arial, sans-serif" font-size="18" font-weight="700">audio_output</text>

  <rect x="1126" y="240" width="352" height="314" rx="22" fill="#DCFCE7"/>
  <text x="1154" y="292" fill="#15803D" font-family="Helvetica, Arial, sans-serif" font-size="30" font-weight="700">Lyrics Compliance</text>
  <text x="1154" y="340" fill="#166534" font-family="Helvetica, Arial, sans-serif" font-size="22">Checks</text>
  <text x="1154" y="374" fill="#14532D" font-family="Helvetica, Arial, sans-serif" font-size="20">transcribed lyrics</text>
  <text x="1154" y="404" fill="#14532D" font-family="Helvetica, Arial, sans-serif" font-size="20">similarity score</text>
  <text x="1154" y="434" fill="#14532D" font-family="Helvetica, Arial, sans-serif" font-size="20">exact match flag</text>
  <text x="1154" y="464" fill="#14532D" font-family="Helvetica, Arial, sans-serif" font-size="20">compliance report JSON</text>

  <path d="M474 520C530 520 564 397 624 397" stroke="#F59E0B" stroke-width="10" stroke-linecap="round"/>
  <path d="M572 381L624 397L572 413" fill="#F59E0B"/>

  <path d="M976 505C1038 505 1060 397 1126 397" stroke="#60A5FA" stroke-width="10" stroke-linecap="round"/>
  <path d="M1074 381L1126 397L1074 413" fill="#60A5FA"/>

  <path d="M474 536C830 690 1018 612 1126 536" stroke="#FBBF24" stroke-width="6" stroke-linecap="round" stroke-dasharray="12 12"/>
  <text x="670" y="654" fill="#FCD34D" font-family="Helvetica, Arial, sans-serif" font-size="20">lyrics also feed expected_lyrics into compliance</text>
</svg>